#!OML:ASF F:\VICON\USERDATA\INSTALL\rory3\rory3.ASF
:FULLY-SPECIFIED
:DEGREES
62
root -5.807360645470006 18.086693350427698 -0.9610310439717962 -180.262446796545 46.532191572156975 -185.56955508747333
lfemur -17.82771621022618 3.9358190653729195 -16.236742827346376
ltibia 9.410109829803169
lfoot 5.428434346982191 -28.870129410545353
ltoes 21.910408440924634
rfemur -9.979423533643283 -3.7725591176513467 2.333126414904431
rtibia 36.63908608313851
rfoot -6.056518151574708 -2.212959620365411
rtoes 0.10769652136289665
lowerback -8.283163285414897 -2.5265794784179634 2.5530464314864516
upperback 3.9098976571747484 -3.5913338270851867 12.669694848021424
thorax 9.04473615583299 -1.7179194136837808 11.310473217294472
lowerneck -7.549058102628154 -8.827621138311319 -2.6866463479030607
upperneck 27.0355297233519 -5.978848365862913 -12.451517058521016
head 11.138498526415823 -3.859753270040656 -4.722171081394056
lclavicle -5.0304656360026476e-15 -1.0392059228259428e-14
lhumerus 42.83052047666639 -33.556304531868264 77.25377282658968
lradius 27.468856171469824
lwrist 27.8655399670158
lhand -2.9143740762867623 41.98265208923796
lfingers 7.125020000000001
lthumb -148.56393844240185 114.21268647127712
rclavicle -4.989972399096129e-15 -1.0188746330093316e-14
rhumerus 15.34564894764241 6.640458054726853 -83.09301461898262
rradius 48.58884743474414
rwrist -63.59736106221822
rhand -24.074138828758453 -15.466576886415748
rfingers 7.125020000000001
rthumb -5.007320556991829 -44.44748549690117
63
root -5.770607851371979 18.04808392311751 -1.1218790715232216 -181.1523059847587 43.17912187046667 -184.76167293495348
lfemur -16.2262118199191 1.4210320247679107 -17.285782272782725
ltibia 9.16772324475452
lfoot 5.268006751704522 -30.52993830138726
ltoes 23.714650214708875
rfemur -5.444928869440383 -3.645869956026049 1.987222384948332
rtibia 35.85678329930453
rfoot -5.005697286237036 -3.723849974411733
rtoes -1.6552428201764506
lowerback -8.68802223722041 -0.4507055726275979 3.6684917698135986
upperback 2.9490022668686073 -0.7356995626660852 13.375503498788612
thorax 7.595846483952514 -0.26962296902485994 12.01092215109258
lowerneck -5.950983602941121 -12.143538384418967 -4.244767973801139
upperneck 27.204210833542383 -10.52992226640311 -11.056576789895091
head 10.700725331907597 -5.936390209811045 -4.481443815184083
lclavicle -5.02777213012499e-15 -1.0444026379275954e-14
lhumerus 42.01342475263584 -27.991625206893723 78.28751356482293
lradius 27.31640842735652
lwrist 40.169247221569435
lhand -4.544127123258287 41.61148410276146
lfingers 7.125020000000001
lthumb -148.7319876793838 51.6500412790553
rclavicle -4.994744147959253e-15 -1.0192813020592416e-14
rhumerus 21.3256539960416 13.107861838510239 -83.3609685028809
rradius 42.59076229488438
rwrist -59.15619740766291
rhand -11.892544244850228 -18.503767402183858
rfingers 7.125020000000001
rthumb 7.281423422960071 -48.086079075859246
64
root -5.758567332889293 18.02374800436454 -1.2954530184675837 -180.36519268236844 39.878294131749286 -182.8616801211023
lfemur -16.063371752063595 -0.14085006876749606 -17.651855897511684
ltibia 11.508891663306795
lfoot 4.429540157039094 -32.76566252605971
ltoes 24.002622619297277
rfemur -1.3482211487043507 -3.4088154479039883 2.5652904300675203
rtibia 34.615162255084535
rfoot -3.8211997047058786 -5.046986592581429
rtoes -0.9787615670040672
lowerback -8.65723425255581 1.3023284638246828 5.065176195702716
upperback 1.8986941472029555 1.9340853012345174 14.356700981109375
thorax 5.7273616308631645 1.2394780464079422 12.520733191973317
lowerneck -4.569148531971972 -15.492794038448622 -5.680891791185506
upperneck 27.481433286166705 -14.677055151605467 -9.757306933775167
head 10.488485213961146 -7.761563117100189 -4.2312980621486185
lclavicle -5.0235298966499845e-15 -1.0453525816950505e-14
lhumerus 41.67660592035533 -22.585630606914368 78.78281775185376
lradius 28.636687430873103
lwrist 51.92749268238689
lhand -9.681014486529044 37.74197140976505
lfingers 7.125020000000001
lthumb -151.4504146024123 -45.882772734866336
rclavicle -4.993043850440092e-15 -1.0191240696212741e-14
rhumerus 28.742714761211392 21.091012545809285 -81.2373863344682
rradius 38.56253786014756
rwrist -49.244494866108795
rhand -3.4870770729664855 -18.656754987095017
rfingers 7.125020000000001
rthumb 17.28025879760949 -48.763784173497
65
root -5.740874989146147 18.02934343124773 -1.4538997699309184 -178.3914723574789 37.03158414643982 -180.21557377322202
lfemur -16.81961642826652 -1.2456787517360062 -17.287769948480626
ltibia 14.24946212893609
lfoot 3.5346464889716835 -35.273714512617005
ltoes 23.906852781048116
rfemur 1.4838519182882415 -3.142135020606969 4.4268117848959285
rtibia 33.32265326810945
rfoot -2.6692496326656654 -6.587533092210151
rtoes -2.6087790275370466
lowerback -8.372615459340658 3.01970259671596 7.114423716711026
upperback 0.8149366466433454 4.711445137066135 15.204382893208917
thorax 3.525570201412987 2.8078946834930645 12.323545210192302
lowerneck -3.548071083964416 -18.539800247268992 -6.140316351149692
upperneck 27.393315194433853 -18.70096150493652 -8.34284804849689
head 10.215938052470097 -9.405070287970757 -3.9365577257046436
lclavicle -5.016943124331547e-15 -1.0429746777800366e-14
lhumerus 41.663445920914796 -17.65540772223667 78.63800482097756
lradius 31.632133587625617
lwrist 54.965745775389294
lhand -14.002687124500929 33.463891362436065
lfingers 7.125020000000001
lthumb -157.4592411657375 -100.3558474302068
rclavicle -4.99154214179164e-15 -1.018937878318931e-14
rhumerus 38.32468481212604 29.552619434190838 -75.14025999897729
rradius 37.41367633094158
rwrist -38.002536412687945
rhand 1.4066225587894152 -16.128055617032004
rfingers 7.125020000000001
rthumb 23.892188772563905 -46.249315665538106
